<svg xmlns="http://www.w3.org/2000/svg" viewBox="0 0 674.41 278.02"><defs><style>.cls-1,.cls-10,.cls-2,.cls-3,.cls-9{fill:none;}.cls-1,.cls-2,.cls-3{stroke:#000;}.cls-1,.cls-10,.cls-3,.cls-9{stroke-linecap:round;}.cls-1,.cls-2,.cls-3,.cls-9{stroke-miterlimit:10;}.cls-1{stroke-width:7px;}.cls-2{stroke-width:5.5px;}.cls-3{stroke-width:6.5px;}.cls-4{font-size:131.81px;font-family:Roboto-Medium, Roboto;font-weight:500;letter-spacing:0.06em;}.cls-5{letter-spacing:0.1em;}.cls-6{font-size:52.76px;font-family:LaoMN, Lao MN;letter-spacing:0.5em;}.cls-7{letter-spacing:0.51em;}.cls-8{letter-spacing:0.51em;}.cls-10,.cls-9{stroke:#acaef3;stroke-width:6px;}.cls-10{stroke-miterlimit:4;}</style></defs><g id="Final_Outline" data-name="Final Outline"><g id="New_Acorn" data-name="New Acorn"><path class="cls-1" d="M446.51,148.17c-22.13-7.8-42.34-10.23-44.15-5.08s14.65,15.65,36.78,23.45,39.22,9.43,41,4.28c1.44-4.11-4.17-9.63-19.56-16.46"/><path class="cls-2" d="M455.1,148.11c-4.19,1.43-3.57-16-.13-17.7,2.8-1.38,13.87,4.56,15,6.68,1.31,2.54-2.89,5.47-5.5,7C461.27,146,452.53,149.17,455.1,148.11Z"/><path class="cls-3" d="M406.42,151.77c-.42,3.85-11.84,28.52-1.75,47.78,4.47,8.53,8.81,12.93,11.81,16.65"/><path class="cls-3" d="M419.63,222.46c34.56-9.61,48.86-20.07,50.19-46.77"/></g><text class="cls-4" transform="translate(200.74 224.31)">A<tspan class="cls-5" x="95.5" y="0" xml:space="preserve">C  RN</tspan></text><text class="cls-6" transform="translate(200.74 268.7)">r<tspan class="cls-7" x="49.06" y="0">esou</tspan><tspan x="278.84" y="0">r</tspan><tspan class="cls-8" x="327.9" y="0">ces</tspan></text><path id="outer_line" data-name="outer line" class="cls-9" d="M191.48,266.15c-19.07-20.92-35-56.08-30.69-80.08,4.46-24.69,24.41-42.53,45.48-56.12,11.48-7.41,23.93-16.27,29.29-36,3.95-14.49,3.35-33.22-2.89-46.48-4.43-9.42-15.86-30.47-4.09-39.14,6.1-4.49,16.88,1.94,19.32,5,5.4,6.72-5.28,13.49,3.23,10,7.25-3,30.2-8.45,48.32-4.83s39.26,15.71,53.15,29.6c12.6,12.6,22.7,26.33,22.7,32.2,0,10.8-17.39,21.69-25.66,24.78-11,4.11-34.95,5-43.22-4.43"/><path id="Path_13" data-name="Path 13" class="cls-10" d="M105.28,136.26c-3.72-.27-3.82-6.21-1.66-9.43s5.57-6.21,5.25-10.09c-.4-4.87-7.09-6.73-11-3.94s-5.3,8.11-5.54,13,.36,9.88-.84,14.64c-2,7.95-8.79,13.82-16.06,17.07-18,8.08-40.18,2.25-53.49-12.38S4.08,108.36,8.48,88.48,25.54,51.13,41.64,39.39c22.93-16.72,53.78-22,79.3-11S171.09,68.29,169.3,97.2c-1.15,18.49-3.86,25.67-15.6,39.78-13.47,16.2-24.77,20.94-26.54,50.91-1.67,28.21,21.18,57.6,47.33,75.41"/></g></svg>