<svg xmlns="http://www.w3.org/2000/svg" viewBox="0 0 691.92 298.65"><defs><style>.cls-1,.cls-10,.cls-2,.cls-3,.cls-9{fill:none;}.cls-1,.cls-2,.cls-3{stroke:#000;}.cls-1,.cls-10,.cls-3,.cls-9{stroke-linecap:round;}.cls-1,.cls-2,.cls-3,.cls-9{stroke-miterlimit:10;}.cls-1{stroke-width:7px;}.cls-2{stroke-width:5.5px;}.cls-3{stroke-width:6.5px;}.cls-4{font-size:131.81px;font-family:Roboto-Medium, Roboto;font-weight:500;letter-spacing:0.06em;}.cls-5{letter-spacing:0.1em;}.cls-6{font-size:52.76px;font-family:LaoMN, Lao MN;letter-spacing:0.5em;}.cls-7{letter-spacing:0.51em;}.cls-8{letter-spacing:0.51em;}.cls-10,.cls-9{stroke:#acaef3;stroke-width:5px;}.cls-10{stroke-miterlimit:4;}</style></defs><g id="Final_Outline" data-name="Final Outline"><g id="New_Acorn" data-name="New Acorn"><path class="cls-1" d="M464,168.81c-22.14-7.81-42.34-10.24-44.16-5.09s14.65,15.65,36.79,23.45,39.21,9.43,41,4.28c1.45-4.1-4.16-9.63-19.56-16.46"/><path class="cls-2" d="M472.61,168.74c-4.18,1.43-3.56-16-.13-17.7,2.8-1.37,13.88,4.57,15,6.68,1.31,2.54-2.89,5.48-5.5,7C478.79,166.64,470,169.8,472.61,168.74Z"/><path class="cls-3" d="M423.93,172.4c-.42,3.86-11.84,28.52-1.75,47.78,4.47,8.53,8.81,12.93,11.82,16.65"/><path class="cls-3" d="M437.14,243.09c34.56-9.61,48.86-20.07,50.2-46.76"/></g><text class="cls-4" transform="translate(218.25 244.94)">A<tspan class="cls-5" x="95.5" y="0" xml:space="preserve">C  RN</tspan></text><text class="cls-6" transform="translate(218.25 289.33)">r<tspan class="cls-7" x="49.06" y="0">esou</tspan><tspan x="278.84" y="0">r</tspan><tspan class="cls-8" x="327.9" y="0">ces</tspan></text><path id="outer_line" data-name="outer line" class="cls-9" d="M211.11,291.33c-20.82-22.85-32-48-32.05-72,0-29.1,25.2-61.93,48.21-76.78,12.55-8.1,26.15-17.78,32-39.29,4.31-15.83,3.66-36.3-3.16-50.78-4.84-10.29-17.33-33.29-4.46-42.77,6.66-4.9,18.44,2.13,21.1,5.43,5.9,7.35-5.77,14.75,3.52,10.89,7.93-3.29,33-9.24,52.8-5.28S372,37.89,387.15,53.07C400.92,66.83,412,81.83,412,88.25c0,11.8-19,23.69-28,27.07-12.06,4.5-38.17,5.46-47.21-4.84"/><path id="Path_13" data-name="Path 13" class="cls-10" d="M117,149.42c-4.08-.29-4.19-6.78-1.82-10.3s6.09-6.78,5.73-11c-.44-5.32-7.74-7.35-12-4.31s-5.79,8.86-6,14.21.39,10.79-.92,16c-2.2,8.69-9.61,15.1-17.55,18.65-19.69,8.83-43.91,2.46-58.44-13.53S6.38,118.94,11.18,97.22s18.64-40.8,36.23-53.64c25-18.27,58.76-24,86.63-12s54.8,43.6,52.85,75.19c-1.26,20.2-4.22,28-17,43.46-14.71,17.69-27.06,22.88-29,55.62C139,236.65,164,268.76,192.55,288.22"/></g></svg>